<svg width="103" height="104" viewBox="0 0 103 104" fill="none" xmlns="http://www.w3.org/2000/svg">
<circle cx="50.056" cy="50.056" r="50.056" fill="white"/>
<g clip-path="url(#clip0_11612_3934)">
<path d="M68.794 45.2115C68.9282 45.3088 69.0566 45.4109 69.1791 45.5179C69.185 45.3895 69.1879 45.2601 69.1879 45.1298V31.9848C69.1879 30.2436 68.4962 28.5737 67.265 27.3424C66.0338 26.1112 64.3639 25.4195 62.6227 25.4195H52.4101V23.2311L52.3926 22.9364C52.3213 22.4115 52.0619 21.9302 51.6627 21.582C51.2635 21.2337 50.7515 21.0421 50.2217 21.0427L49.9241 21.0632C49.4002 21.1351 48.92 21.3943 48.5724 21.7928C48.2248 22.1914 48.0333 22.7023 48.0333 23.2311L48.0304 25.4195H37.8178C36.0771 25.4203 34.408 26.1123 33.1774 27.3435C31.9468 28.5746 31.2555 30.2441 31.2555 31.9848V45.1298C31.2555 46.871 31.9472 48.5409 33.1784 49.7721C34.4096 51.0033 36.0795 51.695 37.8207 51.695H60.5335L60.5918 51.5404L60.6152 51.4645L61.9282 47.4262L61.9428 47.3911C62.1745 46.734 62.5554 46.1396 63.0557 45.6546C63.5559 45.1695 64.1619 44.8072 64.8258 44.5959C65.4898 44.3847 66.1937 44.3303 66.8823 44.4372C67.5708 44.544 68.2252 44.809 68.794 45.2115ZM43.6565 34.1732C44.144 34.1594 44.6292 34.2435 45.0836 34.4205C45.538 34.5975 45.9523 34.8639 46.302 35.2038C46.6516 35.5437 46.9296 35.9503 47.1194 36.3995C47.3092 36.8487 47.407 37.3314 47.407 37.8191C47.407 38.3067 47.3092 38.7894 47.1194 39.2386C46.9296 39.6878 46.6516 40.0944 46.302 40.4343C45.9523 40.7742 45.538 41.0406 45.0836 41.2176C44.6292 41.3946 44.144 41.4787 43.6565 41.4649C42.7074 41.4381 41.8062 41.0422 41.1444 40.3614C40.4825 39.6806 40.1123 38.7685 40.1123 37.8191C40.1123 36.8696 40.4825 35.9575 41.1444 35.2767C41.8062 34.5959 42.7074 34.2 43.6565 34.1732ZM56.7636 34.1732C57.251 34.1594 57.7363 34.2435 58.1907 34.4205C58.6451 34.5975 59.0594 34.8639 59.4091 35.2038C59.7587 35.5437 60.0367 35.9503 60.2265 36.3995C60.4163 36.8487 60.5141 37.3314 60.5141 37.8191C60.5141 38.3067 60.4163 38.7894 60.2265 39.2386C60.0367 39.6878 59.7587 40.0944 59.4091 40.4343C59.0594 40.7742 58.6451 41.0406 58.1907 41.2176C57.7363 41.3946 57.251 41.4787 56.7636 41.4649C55.8145 41.4381 54.9133 41.0422 54.2515 40.3614C53.5896 39.6806 53.2194 38.7685 53.2194 37.8191C53.2194 36.8696 53.5896 35.9575 54.2515 35.2767C54.9133 34.5959 55.8145 34.2 56.7636 34.1732ZM53.2621 56.1652L53.5919 56.0572H33.4556C31.7144 56.0572 30.0445 56.7489 28.8133 57.9801C27.5821 59.2114 26.8904 60.8813 26.8904 62.6225V65.269C26.8901 66.8448 27.2302 68.4021 27.8874 69.8343C28.5446 71.2666 29.5034 72.54 30.6982 73.5674C35.2588 77.4861 41.792 79.4032 50.2217 79.4032C56.2792 79.4032 61.3592 78.414 65.4326 76.4036C64.6583 76.2554 63.9361 75.9073 63.3378 75.394C62.7395 74.8806 62.2858 74.2198 62.0216 73.477L62.0099 73.4419L60.6969 69.4007C60.434 68.6093 59.9905 67.8871 59.4013 67.2969L58.3538 66.5324L57.3063 65.9984L53.2651 64.6854L53.23 64.6708C52.3534 64.3587 51.5948 63.7829 51.0584 63.0225C50.522 62.2621 50.234 61.3544 50.234 60.4238C50.234 59.4933 50.522 58.5855 51.0584 57.8251C51.5948 57.0648 52.3534 56.489 53.23 56.1769L53.2621 56.1652ZM61.4672 65.2369C62.3807 66.1474 63.0656 67.2613 63.4659 68.4874L64.7731 72.5053C64.8818 72.816 65.0844 73.0853 65.3528 73.2758C65.6213 73.4663 65.9423 73.5686 66.2715 73.5686C66.6006 73.5686 66.9217 73.4663 67.1901 73.2758C67.4586 73.0853 67.6611 72.816 67.7698 72.5053L69.0741 68.4874C69.4795 67.2653 70.165 66.155 71.0759 65.2451C71.9869 64.3352 73.0979 63.6509 74.3204 63.2469L78.3413 61.9397C78.6487 61.8285 78.9143 61.6253 79.1021 61.3577C79.2898 61.0901 79.3906 60.7711 79.3906 60.4443C79.3906 60.1174 79.2898 59.7984 79.1021 59.5308C78.9143 59.2633 78.6487 59.06 78.3413 58.9489L78.2625 58.9284L74.2417 57.6212C73.0203 57.2152 71.9102 56.5302 70.9996 55.6205C70.089 54.7109 69.4027 53.6017 68.9953 52.3807L67.6881 48.3628C67.5788 48.0531 67.3762 47.7849 67.1081 47.5952C66.84 47.4055 66.5197 47.3037 66.1912 47.3037C65.8628 47.3037 65.5425 47.4055 65.2744 47.5952C65.0063 47.7849 64.8036 48.0531 64.6944 48.3628L63.3872 52.3807L63.3521 52.4799C62.9433 53.6704 62.2686 54.7521 61.3793 55.643C60.49 56.5338 59.4094 57.2103 58.2196 57.6212L54.2017 58.9284C53.8943 59.0396 53.6286 59.2428 53.4409 59.5104C53.2531 59.778 53.1524 60.097 53.1524 60.4238C53.1524 60.7507 53.2531 61.0697 53.4409 61.3373C53.6286 61.6048 53.8943 61.8081 54.2017 61.9193L58.2196 63.2265C59.4451 63.635 60.5568 64.3236 61.4672 65.2369ZM82.3709 76.3802L84.603 77.1039L84.6497 77.1155C84.8221 77.176 84.9714 77.2884 85.077 77.4374C85.1827 77.5864 85.2394 77.7645 85.2394 77.9471C85.2394 78.1298 85.1827 78.3079 85.077 78.4569C84.9714 78.6059 84.8221 78.7183 84.6497 78.7787L82.4146 79.5024C81.7359 79.7287 81.1191 80.11 80.6132 80.6159C80.1073 81.1218 79.726 81.7386 79.4997 82.4173L78.776 84.6466C78.7156 84.8189 78.6031 84.9683 78.4542 85.0739C78.3052 85.1796 78.1271 85.2363 77.9444 85.2363C77.7618 85.2363 77.5837 85.1796 77.4347 85.0739C77.2857 84.9683 77.1733 84.8189 77.1128 84.6466L76.3834 82.4173C76.1585 81.7373 75.7782 81.119 75.2727 80.6115C74.7673 80.104 74.1505 79.7212 73.4713 79.4936L71.2362 78.7671C71.0639 78.7067 70.9146 78.5942 70.8089 78.4452C70.7033 78.2962 70.6465 78.1181 70.6465 77.9355C70.6465 77.7528 70.7033 77.5747 70.8089 77.4257C70.9146 77.2768 71.0639 77.1643 71.2362 77.1039L73.4713 76.3802C74.1411 76.148 74.7484 75.7645 75.2458 75.2595C75.7433 74.7544 76.1176 74.1414 76.3396 73.4682L77.0662 71.236C77.1266 71.0637 77.239 70.9143 77.388 70.8087C77.537 70.7031 77.7151 70.6463 77.8978 70.6463C78.0804 70.6463 78.2585 70.7031 78.4075 70.8087C78.5565 70.9143 78.6689 71.0637 78.7293 71.236L79.4559 73.4653C79.6823 74.144 80.0635 74.7608 80.5694 75.2667C81.0754 75.7727 81.6921 76.1539 82.3709 76.3802Z" fill="#FF4546"/>
</g>
<path d="M95.4224 95.6956L76.2876 90.3439L88.1142 77.2194L95.4224 95.6956Z" fill="white"/>
<defs>
<clipPath id="clip0_11612_3934">
<rect width="70.029" height="70.029" fill="white" transform="translate(15.2069 15.2068)"/>
</clipPath>
</defs>
</svg>
